<svg id="Layer_1" data-name="Layer 1" xmlns="http://www.w3.org/2000/svg" viewBox="0 0 10.48 14.55"><defs><style>.cls-1{fill:#6d0a15;}</style></defs><title>affordable-01</title><path class="cls-1" d="M8.74,7.49v.29H7.58V7.9c0,.5,0,1,0,1.48a1.77,1.77,0,0,0,.07.46A.34.34,0,0,0,8,10.1a.41.41,0,0,0,.4-.2,1.29,1.29,0,0,0,.13-.69.78.78,0,0,0,0-.22A.52.52,0,0,0,8,8.54l-.11,0L8.06,8a2.34,2.34,0,0,1,.4.12,1.13,1.13,0,0,1,.7.94,1.38,1.38,0,0,1-.37,1.22,1.18,1.18,0,0,1-1.18.23A.9.9,0,0,1,7,9.76a1.5,1.5,0,0,1,0-.37c0-.48,0-1,0-1.45V7.79H6.27V7.5h.64C7,7,6.82,6.87,6.29,7l-.07-.47a2.34,2.34,0,0,1,.79,0,.66.66,0,0,1,.56.68c0,.11,0,.22,0,.34Z" transform="translate(-2.47 -1)"/><path class="cls-1" d="M8.59,1a13.52,13.52,0,0,0,4,.68c.26,0,.37.1.37.36,0,.52,0,1,0,1.57,0,.22-.1.3-.31.36a3.13,3.13,0,0,0-1,.4,2.59,2.59,0,0,1-2.42.33A8.09,8.09,0,0,0,6.6,4.18a.42.42,0,0,1-.47-.44c0-.31.19-.46.48-.47.77,0,1.53,0,2.29,0,.14,0,.37-.12.38-.2,0-.26-.2-.24-.39-.24h-2c-.65,0-1.09.28-1.18.75s.17.86.84,1.1c-.39.4-.76.79-1.16,1.16A.81.81,0,0,1,4.9,6C4.35,6,3.81,6,3.26,6a.71.71,0,0,1-.5-1.26L5.49,2A3.86,3.86,0,0,1,7.43,1Z" transform="translate(-2.47 -1)"/><path class="cls-1" d="M6.77,15.55a11.87,11.87,0,0,0-3.83-.67c-.34,0-.49-.1-.47-.46s0-.94,0-1.42c0-.27.08-.37.35-.43a2.35,2.35,0,0,0,.9-.35,2.65,2.65,0,0,1,2.59-.33,7.48,7.48,0,0,0,2.48.48.44.44,0,0,1,.5.46.45.45,0,0,1-.51.45H6.5c-.17,0-.4,0-.36.23,0,.09.24.21.37.21.7,0,1.41,0,2.11,0a1,1,0,0,0,1.13-.8c.07-.47-.23-.85-.8-1,.39-.41.77-.83,1.18-1.23a.62.62,0,0,1,.41-.12h1.63a.71.71,0,0,1,.71.42.66.66,0,0,1-.18.79c-1,1-1.92,2-2.89,2.92a3.19,3.19,0,0,1-1.57.8L8,15.55Z" transform="translate(-2.47 -1)"/></svg>