<svg id="Layer_1" data-name="Layer 1" xmlns="http://www.w3.org/2000/svg" viewBox="0 0 8.15 11.48"><defs><style>.cls-1{fill:#6d0a15;}</style></defs><title>taka</title><path class="cls-1" d="M7,2.9v.79H3.76V8.12A4.73,4.73,0,0,0,4,9.36a.93.93,0,0,0,.9.73A1.13,1.13,0,0,0,6,9.54a3.44,3.44,0,0,0,.35-1.92A3.05,3.05,0,0,0,6.26,7,1.44,1.44,0,0,0,4.9,5.79l-.32,0,.49-1.35a6.2,6.2,0,0,1,1.12.31A3.15,3.15,0,0,1,8.12,7.29a3.87,3.87,0,0,1-1,3.37,3.21,3.21,0,0,1-3.26.64A2.49,2.49,0,0,1,2.05,9.15a6.74,6.74,0,0,1-.08-1V3.7H.13V2.92H1.9c.17-1.49-.24-1.75-1.7-1.5L0,.11a6.65,6.65,0,0,1,2.18,0A1.82,1.82,0,0,1,3.74,1.94v1Z"/></svg>